#!OML:ASF X:\für Bonn\!DataBase\2005_08_11_Bastian_Final\c3d\Bastian.ASF
:FULLY-SPECIFIED
:DEGREES
62
root 0.664241 8.55607 0.156128 170.219 -5.539 -176.793
lowerback 35.7508 0.557946 -0.265081
upperback 3.93772 -0.74845 0.788601
thorax -13.7103 -0.914053 1.46629
lowerneck -9.95026 -5.73754 -5.69916
upperneck -10.7079 -7.94393 10.5447
head -1.03677 -4.44281 4.28831
rclavicle -3.67752e-015 -2.38542e-015
rhumerus 68.2139 -9.71547 27.8909
rradius 43.7371
rwrist -89.3938
rhand -50.1181 -5.86895
rfingers 7.12502
rthumb -22.7025 -34.5535
lclavicle -3.67752e-015 -2.38542e-015
lhumerus 64.7593 0.558783 -24.6431
lradius 34.7178
lwrist 29.6656
lhand -48.6526 21.5056
lfingers 7.12502
lthumb -21.2954 50.3557
rfemur -58.8118 -38.2179 17.3922
rtibia 145.356
rfoot -45.3498 -1.21938
rtoes -14.4634
lfemur -64.1259 32.6734 -9.62429
ltibia 145.431
lfoot -45.8457 -17.4512
ltoes -23.2487
63
root 0.667366 8.26814 0.163431 169.777 -5.27768 -176.971
lowerback 36.4532 0.759384 -0.447586
upperback 4.03826 -0.656008 0.790388
thorax -13.7482 -0.901745 1.53994
lowerneck -9.66881 -5.70889 -5.78686
upperneck -11.1126 -7.91537 10.5726
head -1.21823 -4.45152 4.34258
rclavicle -4.37326e-015 1.43125e-014
rhumerus 68.126 -10.2057 27.8963
rradius 43.8131
rwrist -89.5718
rhand -50.3927 -5.75921
rfingers 7.12502
rthumb -22.966 -34.4112
lclavicle -4.37326e-015 1.43125e-014
lhumerus 64.4167 0.946965 -24.4598
lradius 34.7885
lwrist 29.84
lhand -48.6524 21.561
lfingers 7.12502
lthumb -21.2952 50.411
rfemur -59.045 -43.1498 16.1758
rtibia 147.59
rfoot -46.2701 -1.04332
rtoes -14.328
lfemur -64.7195 37.692 -8.83914
ltibia 147.718
lfoot -46.6729 -18.5945
ltoes -22.4156
64
root 0.670161 7.99615 0.169457 169.334 -5.02996 -177.131
lowerback 37.0169 0.947365 -0.61332
upperback 4.23748 -0.581531 0.791079
thorax -13.7317 -0.901222 1.60776
lowerneck -9.44224 -5.68108 -5.83007
upperneck -11.4657 -7.89288 10.5651
head -1.3765 -4.46131 4.37229
rclavicle 1.11319e-014 -5.96354e-015
rhumerus 68.0853 -10.6492 27.832
rradius 43.8941
rwrist -89.6604
rhand -50.6221 -5.67059
rfingers 7.12502
rthumb -23.1861 -34.295
lclavicle 1.11319e-014 -5.96354e-015
lhumerus 64.1423 1.33023 -23.884
lradius 34.7438
lwrist 29.5435
lhand -48.5352 21.6455
lfingers 7.12502
lthumb -21.1826 50.5082
rfemur -58.8855 -48.2315 14.6954
rtibia 149.663
rfoot -47.2041 -0.931949
rtoes -13.9131
lfemur -65.1159 42.936 -7.87211
ltibia 149.863
lfoot -47.4274 -19.7454
ltoes -21.1666
65
root 0.673539 7.73939 0.174603 168.927 -4.80775 -177.317
lowerback 37.5006 1.13866 -0.802763
upperback 4.44291 -0.514595 0.780636
thorax -13.6749 -0.903363 1.67711
lowerneck -9.24749 -5.66225 -5.83853
upperneck -11.7979 -7.88666 10.5457
head -1.52325 -4.47927 4.38901
rclavicle -8.84592e-015 1.23246e-014
rhumerus 68.0449 -11.0353 27.7115
rradius 43.993
rwrist -89.7744
rhand -50.7697 -5.53713
rfingers 7.12502
rthumb -23.3277 -34.1437
lclavicle -8.84592e-015 1.23246e-014
lhumerus 63.8994 1.63103 -23.3486
lradius 34.7435
lwrist 29.2692
lhand -48.4511 21.889
lfingers 7.12502
lthumb -21.1018 50.7608
rfemur -58.1065 -53.5351 12.6658
rtibia 151.611
rfoot -48.2425 -0.93387
rtoes -13.2227
lfemur -65.3915 48.2222 -6.87926
ltibia 151.868
lfoot -48.1091 -20.6328
ltoes -20.018
66
root 0.676753 7.49799 0.179012 168.555 -4.59396 -177.439
lowerback 37.8876 1.30901 -0.913806
upperback 4.65546 -0.440444 0.770946
thorax -13.5722 -0.905774 1.70036
lowerneck -9.12434 -5.65617 -5.83573
upperneck -12.051 -7.89524 10.5341
head -1.6301 -4.50047 4.39993
rclavicle -1.41137e-014 -2.38542e-015
rhumerus 68.0345 -11.3485 27.4808
rradius 44.0813
rwrist -89.7644
rhand -50.8083 -5.46892
rfingers 7.12502
rthumb -23.3647 -34.0708
lclavicle -1.41137e-014 -2.38542e-015
lhumerus 63.6132 1.79829 -23.2235
lradius 34.9146
lwrist 29.4463
lhand -48.5707 22.2535
lfingers 7.12502
lthumb -21.2167 51.1124
rfemur -56.559 -58.7146 10.1101
rtibia 153.418
rfoot -49.3184 -1.11238
rtoes -12.3738
lfemur -65.5969 53.3428 -5.75564
ltibia 153.741
lfoot -48.6242 -21.3306
ltoes -18.8781
67
root 0.680242 7.27241 0.183459 168.209 -4.43558 -177.571
lowerback 38.2007 1.46469 -1.05336
upperback 4.8823 -0.393353 0.786981
thorax -13.4239 -0.919581 1.7769
lowerneck -9.13785 -5.66144 -5.88526
upperneck -12.2042 -7.91261 10.5186
head -1.67729 -4.51821 4.40926
rclavicle 6.4605e-015 -2.26615e-014
rhumerus 68.0991 -11.639 27.1485
rradius 44.1639
rwrist -89.7528
rhand -50.7394 -5.36954
rfingers 7.12502
rthumb -23.2986 -33.9798
lclavicle 6.4605e-015 -2.26615e-014
lhumerus 63.3158 1.83952 -23.2182
lradius 35.135
lwrist 29.8818
lhand -48.7982 22.6888
lfingers 7.12502
lthumb -21.4352 51.5229
rfemur -53.9458 -63.8292 6.51253
rtibia 155.132
rfoot -50.3897 -1.31699
rtoes -11.3086
lfemur -65.855 57.8661 -4.75417
ltibia 155.475
lfoot -48.8524 -21.907
ltoes -17.5531
68
root 0.683556 7.06251 0.18588 167.863 -4.28495 -177.676
lowerback 38.424 1.6047 -1.1553
upperback 5.13945 -0.35431 0.801325
thorax -13.2072 -0.94157 1.83342
lowerneck -9.23294 -5.66976 -5.90505
upperneck -12.3199 -7.93832 10.4844
head -1.69904 -4.53955 4.4009
rclavicle -4.96962e-016 1.11319e-014
rhumerus 68.2086 -11.8737 26.6979
rradius 44.259
rwrist -89.7391
rhand -50.6051 -5.21865
rfingers 7.12502
rthumb -23.1698 -33.8452
lclavicle -4.96962e-016 1.11319e-014
lhumerus 63.1008 1.90491 -22.5999
lradius 35.267
lwrist 29.9111
lhand -49.0052 22.8575
lfingers 7.12502
lthumb -21.634 51.669
rfemur -50.0981 -68.3796 1.77128
rtibia 156.744
rfoot -51.3549 -1.49721
rtoes -10.046
lfemur -65.9926 61.9474 -3.69946
ltibia 157.062
lfoot -48.9462 -22.3265
ltoes -16.4084
69
root 0.687008 6.86896 0.188649 167.519 -4.15494 -177.777
lowerback 38.6352 1.73012 -1.21764
upperback 5.38108 -0.319332 0.778156
thorax -13.0037 -0.965659 1.82957
lowerneck -9.35993 -5.69094 -5.83572
upperneck -12.3518 -7.98367 10.4273
head -1.68947 -4.56847 4.36145
rclavicle -6.95746e-016 6.75868e-015
rhumerus 68.323 -11.9787 26.074
rradius 44.331
rwrist -89.6855
rhand -50.4001 -5.01609
rfingers 7.12502
rthumb -22.9731 -33.6672
lclavicle -6.95746e-016 6.75868e-015
lhumerus 63.0519 1.9647 -21.5175
lradius 35.2646
lwrist 29.5456
lhand -49.1664 22.7356
lfingers 7.12502
lthumb -21.7888 51.5291
rfemur -44.5105 -72.3557 -4.60259
rtibia 158.238
rfoot -52.1792 -1.87031
rtoes -8.97558
lfemur -66.043 65.4885 -2.65369
ltibia 158.511
lfoot -48.8965 -22.6143
ltoes -15.2143
